<svg xmlns="http://www.w3.org/2000/svg" viewBox="0 0 320 320" role="img" aria-labelledby="title desc" shape-rendering="crispEdges">
  <title id="title">Pixel style avatar placeholder</title>
  <desc id="desc">A pixel style avatar illustration for Michael Zhang until a real portrait is available.</desc>
  <rect width="320" height="320" fill="#fffdf7"/>
  <rect x="24" y="24" width="272" height="272" fill="#2364aa"/>
  <rect x="40" y="40" width="240" height="240" fill="#f7f2e9"/>
  <rect x="72" y="56" width="176" height="32" fill="#1d1b18"/>
  <rect x="56" y="88" width="208" height="32" fill="#1d1b18"/>
  <rect x="72" y="120" width="176" height="112" fill="#f2caa7"/>
  <rect x="88" y="104" width="144" height="32" fill="#1d1b18"/>
  <rect x="64" y="136" width="32" height="64" fill="#f2caa7"/>
  <rect x="224" y="136" width="32" height="64" fill="#f2caa7"/>
  <rect x="104" y="152" width="32" height="16" fill="#1d1b18"/>
  <rect x="184" y="152" width="32" height="16" fill="#1d1b18"/>
  <rect x="144" y="176" width="32" height="16" fill="#d8946f"/>
  <rect x="128" y="208" width="64" height="16" fill="#d94a38"/>
  <rect x="96" y="232" width="128" height="24" fill="#f2caa7"/>
  <rect x="80" y="256" width="160" height="40" fill="#2a8c64"/>
  <rect x="112" y="256" width="96" height="40" fill="#2364aa"/>
  <rect x="128" y="264" width="64" height="16" fill="#fffdf7"/>
  <rect x="56" y="256" width="24" height="40" fill="#2a8c64"/>
  <rect x="240" y="256" width="24" height="40" fill="#2a8c64"/>
  <rect x="24" y="24" width="272" height="8" fill="#1d1b18"/>
  <rect x="24" y="288" width="272" height="8" fill="#1d1b18"/>
  <rect x="24" y="24" width="8" height="272" fill="#1d1b18"/>
  <rect x="288" y="24" width="8" height="272" fill="#1d1b18"/>
  <rect x="48" y="48" width="24" height="24" fill="#f2bf45"/>
  <rect x="248" y="248" width="24" height="24" fill="#d94a38"/>
</svg>
