<svg xmlns="http://www.w3.org/2000/svg" viewBox="0 0 320 320" role="img" aria-labelledby="title desc" shape-rendering="crispEdges">
  <title id="title">Pixel penguin avatar</title>
  <desc id="desc">An original black, white, yellow, and red pixel penguin avatar for Michael Zhang.</desc>
  <rect width="320" height="320" fill="#0b0b0b"/>
  <rect x="16" y="16" width="288" height="288" fill="#f03112"/>
  <rect x="32" y="32" width="256" height="256" fill="#0b0b0b"/>
  <rect x="48" y="48" width="224" height="224" fill="#111111"/>
  <rect x="48" y="272" width="224" height="16" fill="#ffd526"/>
  <rect x="48" y="248" width="16" height="16" fill="#ffd526"/>
  <rect x="256" y="248" width="16" height="16" fill="#ffd526"/>

  <rect x="112" y="56" width="96" height="24" fill="#ffffff"/>
  <rect x="88" y="80" width="144" height="24" fill="#ffffff"/>
  <rect x="72" y="104" width="176" height="96" fill="#0b0b0b"/>
  <rect x="88" y="104" width="144" height="104" fill="#0b0b0b"/>
  <rect x="104" y="128" width="112" height="104" fill="#ffffff"/>
  <rect x="80" y="128" width="24" height="64" fill="#0b0b0b"/>
  <rect x="216" y="128" width="24" height="64" fill="#0b0b0b"/>

  <rect x="112" y="128" width="32" height="24" fill="#ffffff"/>
  <rect x="176" y="128" width="32" height="24" fill="#ffffff"/>
  <rect x="120" y="136" width="16" height="16" fill="#0b0b0b"/>
  <rect x="184" y="136" width="16" height="16" fill="#0b0b0b"/>
  <rect x="144" y="152" width="32" height="16" fill="#ffd526"/>
  <rect x="152" y="168" width="16" height="8" fill="#ffd526"/>

  <rect x="112" y="208" width="96" height="24" fill="#ffffff"/>
  <rect x="88" y="224" width="56" height="24" fill="#ffd526"/>
  <rect x="176" y="224" width="56" height="24" fill="#ffd526"/>
  <rect x="72" y="248" width="72" height="16" fill="#0b0b0b"/>
  <rect x="176" y="248" width="72" height="16" fill="#0b0b0b"/>
  <rect x="96" y="248" width="48" height="16" fill="#ffd526"/>
  <rect x="176" y="248" width="48" height="16" fill="#ffd526"/>

  <rect x="40" y="40" width="24" height="24" fill="#ffd526"/>
  <rect x="256" y="40" width="24" height="24" fill="#f03112"/>
  <rect x="40" y="40" width="8" height="8" fill="#0b0b0b"/>
  <rect x="272" y="56" width="8" height="8" fill="#0b0b0b"/>
</svg>
